<?xml version="1.0" encoding="utf-8"?>
<!-- Generator: Adobe Illustrator 22.0.1, SVG Export Plug-In . SVG Version: 6.00 Build 0)  -->
<!DOCTYPE svg PUBLIC "-//W3C//DTD SVG 1.1//EN" "http://www.w3.org/Graphics/SVG/1.1/DTD/svg11.dtd">
<svg version="1.1" id="Layer_1" xmlns="http://www.w3.org/2000/svg" xmlns:xlink="http://www.w3.org/1999/xlink" x="0px" y="0px"
	 viewBox="0 0 32 32" style="enable-background:new 0 0 32 32;" xml:space="preserve">
<style type="text/css">
	.st0{fill:#707A8A;}
</style>
<title>ca-logo2</title>
<path class="st0" d="M30.1,20.7c-0.5,0-0.9-0.4-0.9-0.9s0.4-0.9,0.9-0.9s0.9,0.4,0.9,0.9C31,20.4,30.7,20.7,30.1,20.7z M30.1,18.9
	c-0.4,0-0.8,0.3-0.8,0.8s0.4,0.8,0.8,0.8c0.4,0,0.8-0.3,0.8-0.8S30.5,18.9,30.1,18.9z M30.4,20.3l-0.3-0.4H30v0.4h-0.2v-1h0.3
	c0.2,0,0.4,0.1,0.4,0.3c0,0.1-0.1,0.3-0.2,0.3l0.3,0.4L30.4,20.3L30.4,20.3z M30.1,19.4H30v0.3h0.1c0.1,0,0.2,0,0.2-0.1
	C30.3,19.5,30.2,19.4,30.1,19.4z"/>
<path class="st0" d="M0.4,25.1V24h0.8v1h0.6v0.6H1.1v1.7c0,0.2,0.1,0.2,0.3,0.2c0.1,0,0.2,0,0.4,0v0.6c-0.2,0-0.4,0-0.6,0
	c-0.5,0-0.8-0.3-0.8-0.7v-1.9H0V25L0.4,25.1L0.4,25.1z"/>
<path class="st0" d="M2.8,26.7c0,0.6,0.3,0.9,0.6,0.9s0.5-0.1,0.7-0.4l0.5,0.4c-0.3,0.4-0.7,0.6-1.3,0.6c-0.8,0-1.3-0.6-1.3-1.6
	S2.5,25,3.4,25c0.8,0,1.2,0.7,1.2,1.4v0.3L2.8,26.7L2.8,26.7z M4,26.2c0-0.4-0.2-0.7-0.6-0.7s-0.6,0.3-0.6,0.7
	C2.8,26.2,4,26.2,4,26.2z"/>
<path class="st0" d="M7,26c-0.1-0.3-0.3-0.5-0.6-0.5c-0.4,0-0.6,0.3-0.6,1s0.2,1,0.6,1c0.3,0,0.5-0.2,0.7-0.5l0.6,0.3
	C7.3,28,7,28.2,6.4,28.2c-0.8,0-1.3-0.6-1.3-1.6S5.6,25,6.4,25c0.6,0,1,0.3,1.2,0.8L7,26L7,26z"/>
<path class="st0" d="M8.2,28.1v-4.3h0.8v1.6C9.2,25.2,9.5,25,9.8,25c0.6,0,0.9,0.4,0.9,1v2.1H10v-2c0-0.4-0.1-0.5-0.4-0.5
	c-0.3,0-0.6,0.2-0.7,0.3v2.2H8.2L8.2,28.1z"/>
<path class="st0" d="M11.5,28.1V25h0.7v0.3c0.3-0.2,0.6-0.4,0.9-0.4c0.6,0,0.9,0.4,0.9,1v2.1h-0.8v-2c0-0.4-0.1-0.5-0.4-0.5
	c-0.3,0-0.6,0.2-0.7,0.3v2.2L11.5,28.1L11.5,28.1z"/>
<path class="st0" d="M15.9,25c0.8,0,1.3,0.6,1.3,1.6s-0.5,1.6-1.3,1.6s-1.3-0.6-1.3-1.6S15,25,15.9,25z M15.9,25.6
	c-0.4,0-0.6,0.3-0.6,1s0.2,1,0.6,1c0.4,0,0.6-0.3,0.6-1S16.3,25.6,15.9,25.6z"/>
<path class="st0" d="M17.8,28.1v-4.3h0.7v4.3H17.8z"/>
<path class="st0" d="M20.5,25c0.8,0,1.3,0.6,1.3,1.6s-0.5,1.6-1.3,1.6s-1.3-0.6-1.3-1.6S19.6,25,20.5,25z M20.5,25.6
	c-0.4,0-0.6,0.3-0.6,1s0.2,1,0.6,1s0.6-0.3,0.6-1C21.1,25.9,20.9,25.6,20.5,25.6z"/>
<path class="st0" d="M24.8,25.5c-0.2,0-0.4,0-0.5,0.1c0.1,0.1,0.2,0.3,0.2,0.5c0,0.6-0.4,1-1.2,1c-0.3,0-0.6,0-0.6,0.2
	c0,0.5,2-0.2,2,1.1c0,0.4-0.4,0.9-1.4,0.9c-0.8,0-1.4-0.3-1.4-0.8c0-0.4,0.3-0.6,0.5-0.6l0,0c-0.1-0.1-0.4-0.2-0.4-0.5
	s0.4-0.5,0.5-0.6c-0.3-0.2-0.4-0.4-0.4-0.8c0-0.5,0.4-1.1,1.2-1.1c0.3,0,0.6,0.1,0.8,0.3c0.1-0.2,0.4-0.3,0.7-0.3L24.8,25.5
	L24.8,25.5z M22.7,28.4c0,0.2,0.2,0.4,0.8,0.4c0.5,0,0.6-0.2,0.6-0.4s-0.2-0.4-0.9-0.4C22.8,28.1,22.7,28.3,22.7,28.4z M23.3,25.6
	c-0.3,0-0.5,0.2-0.5,0.5s0.2,0.5,0.5,0.5c0.3,0,0.5-0.2,0.5-0.5C23.9,25.8,23.6,25.6,23.3,25.6z"/>
<path class="st0" d="M25.4,24.5v-0.7h0.7v0.7H25.4z M26.1,27.2v0.9h-0.7V25h0.7V27.2z"/>
<path class="st0" d="M27.4,26.7c0,0.6,0.3,0.9,0.6,0.9c0.4,0,0.5-0.1,0.7-0.4l0.5,0.4C29,28,28.6,28.2,28,28.2
	c-0.8,0-1.3-0.6-1.3-1.6S27.2,25,28,25c0.8,0,1.2,0.7,1.2,1.4v0.3L27.4,26.7L27.4,26.7z M28.6,26.2c0-0.4-0.2-0.7-0.6-0.7
	s-0.6,0.2-0.6,0.7C27.4,26.2,28.6,26.2,28.6,26.2z"/>
<path class="st0" d="M31.4,25.9c-0.1-0.2-0.4-0.3-0.6-0.3c-0.3,0-0.4,0.1-0.4,0.3c0,0.5,1.6,0.3,1.6,1.4c0,0.6-0.5,0.9-1.1,0.9
	c-0.5,0-0.9-0.2-1.2-0.6l0.5-0.4c0.2,0.2,0.4,0.4,0.7,0.4c0.3,0,0.4-0.1,0.4-0.4c0-0.5-1.6-0.4-1.6-1.4c0-0.6,0.5-0.9,1-0.9
	c0.4,0,0.8,0.1,1.1,0.5L31.4,25.9L31.4,25.9z"/>
<path class="st0" d="M28,18.1V8.9c0-2.2-0.4-3.5-1.6-4.6c-1.2-1-3-1.6-5.5-1.6c-2.2,0-4,0.4-5.5,1.3c1.1,0.9,1.9,2.1,2.2,3.6
	c0.5-0.8,1.4-1.1,2.6-1.1c2,0,2.6,1.4,2.6,2.6v0.6C17.3,10,12.1,11,12.2,16.1c0.1,3.6,3.3,5,5.5,5c2.6,0,4-0.7,5.4-2.4
	c0,0.8,0.1,1.5,0.2,2.1h4.9C28,19.9,28,19,28,18.1L28,18.1z M22.8,13c0,1.5,0,2.3-0.7,3.3c-0.6,0.9-1.5,1.5-2.6,1.5
	c-1.4,0-2.6-0.7-2.6-2.2c0-2.3,3.3-3.1,5.9-3.2L22.8,13L22.8,13z"/>
<path class="st0" d="M11.6,16.2c-0.4,0.4-1.2,0.7-1.9,0.7c-2.6,0-3.3-1.9-3.3-5.2c0-3.3,0.8-5,3.3-5c1.6,0,2.7,0.8,2.7,2.4h4.8
	c-0.4-4.2-3.6-6.4-7.7-6.4c-5.6,0-8.8,4-8.8,9.4c0,5.2,3.2,9,8.5,9c1.4,0,2.9-0.3,4.2-1C12.4,19.2,11.7,18,11.6,16.2z"/>
</svg>
